<svg xmlns="http://www.w3.org/2000/svg" width="33" height="35" viewBox="0 0 33 35">
    <path fill="#008EFA" fill-rule="nonzero" d="M29.028 2.327c-2.186-.76-4.57-1.262-6.819-1.691A36.444 36.444 0 0 0 15.397 0a37.99 37.99 0 0 0-7.039.66C5.867 1.132 3.254 1.974.803 3.096c-.81.37-.833.946-.774 1.257l.006.032-.007.033A1.19 1.19 0 0 0 0 4.716c.345 7.965.373 15.865.374 24.627 0 .138.026.273.083.425l.01.045c.025.297.21.559.548.778C5.356 33.393 11.14 35 16.884 35c3 0 5.82-.433 8.386-1.286 2.345-.781 4.69-1.89 6.6-3.123.34-.22.525-.48.549-.778l.01-.044a1.2 1.2 0 0 0 .083-.426c0-6.578.014-13.009.188-19.372.016-.572.079-1.167.144-1.798.125-1.183.252-2.408.05-3.464-.132-.696-1.577-1.586-3.866-2.382zM5.067 5.397A26.408 26.408 0 0 1 15.45 3.301c3.944 0 7.868.827 11.662 2.457l.436.187-.406.246C24.228 7.957 20.687 8.89 16.903 8.89c-4.066 0-8.277-1.085-11.858-3.055l-.44-.242.462-.197zm24.23 18.753c-.003.515-.004 1.03-.005 1.544l-.005 1.368-.106.072c-3.759 2.547-7.955 3.84-12.472 3.84-4.205 0-8.552-1.173-12.57-3.391a1.806 1.806 0 0 0-.368-.153l-.171-.05-.007-1.777c-.002-.712-.004-1.425-.01-2.138l-.002-.341.318.11c5.143 1.766 9.983 2.663 14.384 2.663 3.799 0 7.395-.665 10.69-1.975l.327-.13-.002.358zm.083-7.765c-.012.743-.019 1.487-.025 2.23l-.015 1.547-.135.065c-3.27 1.587-6.922 2.392-10.851 2.392-4.377 0-9.17-.967-14.656-2.957l-.156-.057-.016-1.532c-.006-.729-.012-1.458-.025-2.186l-.007-.41.356.19c3.94 2.107 8.437 3.22 13.005 3.22 4.192 0 8.406-.943 12.185-2.727l.346-.163-.006.388zm.161-7.44c-.02.69-.034 1.379-.048 2.068l-.026 1.196-.12.067a25.432 25.432 0 0 1-12.485 3.298h-.001c-4.675 0-9.206-1.31-13.108-3.788-.052-.033-.104-.056-.155-.08l-.191-.09-.024-1.09c-.01-.467-.02-.936-.033-1.404l-.011-.42.364.2c3.887 2.134 8.33 3.263 12.85 3.263 4.611 0 8.978-1.188 12.626-3.435l.375-.23-.013.446z"/>
</svg>
