<svg xmlns="http://www.w3.org/2000/svg" width="36" height="36" viewBox="0 0 36 36">
    <g fill="none" fill-rule="evenodd" stroke="#008EFA" stroke-linecap="round" stroke-linejoin="round">
        <path d="M11.25 35.25h-7.5c-1.656 0-3-1.344-3-3V3.75c0-1.656 1.344-3 3-3h15c1.656 0 3 1.344 3 3v13.5M21.75 6.75h-21M11.25 29.25H.75M8.25 3.75h6M11.25 33a.75.75 0 0 1 0-1.5M14.25 24.75h21M23.25 27.75h-6M32.25 27.75h-3M20.25 30.75h-3"/>
        <path d="M35.25 32.25c0 1.656-1.344 3-3 3h-15c-1.656 0-3-1.344-3-3v-9c0-1.656 1.344-3 3-3h15c1.656 0 3 1.344 3 3v9zM9.164 18.903a2.087 2.087 0 1 0 2.086-2.09 2.087 2.087 0 1 1 2.086-2.087M11.25 20.988v1.389M11.25 11.25v1.392"/>
    </g>
</svg>
