<svg xmlns="http://www.w3.org/2000/svg" width="36" height="36" viewBox="0 0 36 36">
    <g fill="none" fill-rule="evenodd" stroke="#008EFA" stroke-linejoin="round">
        <path d="M6 9.914V12l-3.808 1.089C1.398 13.315.75 14.175.75 15v.75H9"/>
        <path d="M10.5 9.867V12l3.807 1.089c.793.226 1.443 1.086 1.443 1.911v.75H7.5"/>
        <ellipse cx="8.25" cy="5.657" rx="4.5" ry="4.907"/>
        <path d="M12.704 4.797c-.75.75-2.896.714-3.704-.792-1.5 1.5-3.938 1.5-5.151.645M25.5 9.914V12l-3.808 1.089c-.793.226-1.442 1.086-1.442 1.911v.75h8.25"/>
        <path d="M30 9.891V12l3.807 1.089c.793.226 1.443 1.086 1.443 1.911v.75H27"/>
        <ellipse cx="27.75" cy="5.657" rx="4.5" ry="4.907"/>
        <path d="M32.18 4.793c-.75.75-2.872.718-3.68-.788-1.5 1.5-3.938 1.5-5.151.645M15.75 29.413V31.5l-3.809 1.089c-.792.227-1.441 1.086-1.441 1.911v.75h8.25"/>
        <path d="M20.25 29.413V31.5l3.807 1.089c.794.227 1.443 1.086 1.443 1.911v.75h-8.25"/>
        <ellipse cx="18" cy="25.157" rx="4.5" ry="4.907"/>
        <path d="M22.43 24.255c-.75.75-2.872.756-3.68-.75-1.5 1.5-3.938 1.5-5.151.645"/>
        <path stroke-linecap="round" d="M6 18.75l3.75 3.75M30 18.75l-3.75 3.75"/>
    </g>
</svg>
