<svg xmlns="http://www.w3.org/2000/svg" width="24" height="24" viewBox="0 0 24 24">
    <path fill="#3D3935" fill-rule="evenodd" d="M22.191 5.481H1.81c-.51 0-.94-.17-1.287-.512C.174 4.628 0 4.23 0 3.775c0-.5.174-.922.522-1.263A1.766 1.766 0 0 1 1.809 2H22.19c.51 0 .94.17 1.287.512A1.7 1.7 0 0 1 24 3.775c0 .5-.174.91-.522 1.228-.348.319-.777.478-1.287.478zm0 8.26h-12.8c-.463 0-.87-.171-1.217-.512a1.7 1.7 0 0 1-.522-1.263c0-.5.162-.91.487-1.229.325-.318.742-.478 1.252-.478h12.8c.51 0 .94.16 1.287.478.348.319.522.728.522 1.229 0 .5-.174.921-.522 1.263a1.766 1.766 0 0 1-1.287.512zm0 8.259H1.81c-.464 0-.881-.182-1.252-.546C.186 21.09 0 20.68 0 20.225c0-.455.174-.853.522-1.194a1.766 1.766 0 0 1 1.287-.512H22.19c.51 0 .94.159 1.287.478.348.318.522.728.522 1.228s-.174.922-.522 1.263a1.766 1.766 0 0 1-1.287.512z" opacity=".4"/>
</svg>
